<mxfile host="65bd71144e">
    <diagram id="5Ob9r-cBuhqN_jd1uwc4" name="Page-1">
        <mxGraphModel dx="1040" dy="919" grid="0" gridSize="10" guides="1" tooltips="1" connect="1" arrows="1" fold="1" page="1" pageScale="1" pageWidth="2339" pageHeight="3300" background="#ffffff" math="0" shadow="0">
            <root>
                <mxCell id="0"/>
                <mxCell id="1" parent="0"/>
                <mxCell id="87" value="" style="rounded=1;whiteSpace=wrap;html=1;fillColor=#EFF7ED;strokeColor=#82b366;dashed=1;" vertex="1" parent="1">
                    <mxGeometry x="292" y="1606" width="356" height="401" as="geometry"/>
                </mxCell>
                <mxCell id="94" value="还原跳动轨迹至虚拟探针" style="whiteSpace=wrap;html=1;fontSize=14;fillColor=none;fontColor=#000000;strokeColor=#0d0d0d;" vertex="1" parent="87">
                    <mxGeometry x="96.5" y="325" width="169" height="59" as="geometry"/>
                </mxCell>
                <mxCell id="80" value="" style="rounded=1;whiteSpace=wrap;html=1;fillColor=#EFF7ED;strokeColor=#82b366;dashed=1;" vertex="1" parent="1">
                    <mxGeometry x="423.5" y="873" width="736" height="228" as="geometry"/>
                </mxCell>
                <mxCell id="79" value="" style="rounded=1;whiteSpace=wrap;html=1;fillColor=#EFF7ED;strokeColor=#82b366;dashed=1;" vertex="1" parent="1">
                    <mxGeometry x="421" y="554" width="736" height="298.25" as="geometry"/>
                </mxCell>
                <mxCell id="78" value="" style="rounded=1;whiteSpace=wrap;html=1;fillColor=#EFF7ED;strokeColor=#82b366;dashed=1;" vertex="1" parent="1">
                    <mxGeometry x="423" y="322" width="736" height="213" as="geometry"/>
                </mxCell>
                <mxCell id="74" style="edgeStyle=none;html=1;exitX=0.5;exitY=1;exitDx=0;exitDy=0;entryX=0.5;entryY=0;entryDx=0;entryDy=0;strokeColor=#030303;fontColor=#000000;" edge="1" parent="1" source="68" target="73">
                    <mxGeometry relative="1" as="geometry"/>
                </mxCell>
                <mxCell id="68" value="" style="whiteSpace=wrap;html=1;fillColor=none;fontColor=#000000;strokeColor=#0d0d0d;" parent="1" vertex="1">
                    <mxGeometry x="451" y="935" width="680" height="145" as="geometry"/>
                </mxCell>
                <mxCell id="13" value="" style="whiteSpace=wrap;html=1;fillColor=none;strokeColor=#0d0d0d;" parent="1" vertex="1">
                    <mxGeometry x="451" y="376" width="680" height="130" as="geometry"/>
                </mxCell>
                <mxCell id="6" style="edgeStyle=none;html=1;exitX=1;exitY=0.5;exitDx=0;exitDy=0;entryX=0;entryY=0.5;entryDx=0;entryDy=0;fontColor=#000000;strokeColor=#030303;" parent="1" source="2" target="4" edge="1">
                    <mxGeometry relative="1" as="geometry"/>
                </mxCell>
                <mxCell id="2" value="清洗长度&lt;br&gt;异常的mac地址" style="whiteSpace=wrap;html=1;fillColor=none;fontColor=#000000;strokeColor=#000000;" parent="1" vertex="1">
                    <mxGeometry x="481" y="406" width="120" height="60" as="geometry"/>
                </mxCell>
                <mxCell id="3" value="499 - 498" style="text;html=1;align=center;verticalAlign=middle;resizable=0;points=[];autosize=1;strokeColor=none;fillColor=none;fontColor=#000000;" parent="1" vertex="1">
                    <mxGeometry x="506" y="466" width="70" height="30" as="geometry"/>
                </mxCell>
                <mxCell id="9" style="edgeStyle=none;html=1;exitX=1;exitY=0.5;exitDx=0;exitDy=0;entryX=0;entryY=0.5;entryDx=0;entryDy=0;fontColor=#000000;strokeColor=#030303;" parent="1" source="4" target="7" edge="1">
                    <mxGeometry relative="1" as="geometry"/>
                </mxCell>
                <mxCell id="4" value="清洗数值不正确&lt;br&gt;（包含0）&lt;br&gt;的mac地址" style="whiteSpace=wrap;html=1;fillColor=none;fontColor=#000000;strokeColor=#000000;" parent="1" vertex="1">
                    <mxGeometry x="656" y="406" width="120" height="60" as="geometry"/>
                </mxCell>
                <mxCell id="5" value="498 - 363" style="text;html=1;align=center;verticalAlign=middle;resizable=0;points=[];autosize=1;strokeColor=none;fillColor=none;fontColor=#000000;" parent="1" vertex="1">
                    <mxGeometry x="681" y="466" width="70" height="30" as="geometry"/>
                </mxCell>
                <mxCell id="12" style="edgeStyle=none;html=1;exitX=1;exitY=0.5;exitDx=0;exitDy=0;entryX=0;entryY=0.5;entryDx=0;entryDy=0;fontColor=#000000;strokeColor=#030303;" parent="1" source="7" target="10" edge="1">
                    <mxGeometry relative="1" as="geometry"/>
                </mxCell>
                <mxCell id="7" value="清除&lt;br&gt;多播/广播mac地址" style="whiteSpace=wrap;html=1;fillColor=none;fontColor=#000000;strokeColor=#000000;" parent="1" vertex="1">
                    <mxGeometry x="826" y="406" width="120" height="60" as="geometry"/>
                </mxCell>
                <mxCell id="8" value="363 - 331" style="text;html=1;align=center;verticalAlign=middle;resizable=0;points=[];autosize=1;strokeColor=none;fillColor=none;fontColor=#000000;" parent="1" vertex="1">
                    <mxGeometry x="851" y="466" width="70" height="30" as="geometry"/>
                </mxCell>
                <mxCell id="10" value="清除&lt;br&gt;伪mac地址" style="whiteSpace=wrap;html=1;fillColor=none;fontColor=#000000;strokeColor=#000000;" parent="1" vertex="1">
                    <mxGeometry x="991" y="406" width="120" height="60" as="geometry"/>
                </mxCell>
                <mxCell id="11" value="331 - 203" style="text;html=1;align=center;verticalAlign=middle;resizable=0;points=[];autosize=1;strokeColor=none;fillColor=none;fontColor=#000000;" parent="1" vertex="1">
                    <mxGeometry x="1016" y="466" width="70" height="30" as="geometry"/>
                </mxCell>
                <mxCell id="14" value="针对mac本身的异常499 - 203&amp;nbsp; （信号干扰、数据丢失、设备隐私设定）" style="text;html=1;align=left;verticalAlign=middle;resizable=0;points=[];autosize=1;fillColor=none;fontColor=#000000;" parent="1" vertex="1">
                    <mxGeometry x="481" y="376" width="400" height="30" as="geometry"/>
                </mxCell>
                <mxCell id="20" style="edgeStyle=none;html=1;exitX=0.5;exitY=1;exitDx=0;exitDy=0;entryX=0.5;entryY=0;entryDx=0;entryDy=0;fontColor=#000000;strokeColor=#030303;" parent="1" source="15" target="18" edge="1">
                    <mxGeometry relative="1" as="geometry"/>
                </mxCell>
                <mxCell id="15" value="清除全时段范围内&lt;br&gt;只出现过一次的mac" style="whiteSpace=wrap;html=1;fillColor=none;fontColor=#000000;strokeColor=#000000;" parent="1" vertex="1">
                    <mxGeometry x="461" y="611" width="180" height="90" as="geometry"/>
                </mxCell>
                <mxCell id="16" value="" style="edgeStyle=none;orthogonalLoop=1;jettySize=auto;html=1;entryX=0.5;entryY=0;entryDx=0;entryDy=0;exitX=0.147;exitY=1.002;exitDx=0;exitDy=0;exitPerimeter=0;fontColor=#000000;strokeColor=#242323;" parent="1" source="13" target="15" edge="1">
                    <mxGeometry width="100" relative="1" as="geometry">
                        <mxPoint x="551" y="511" as="sourcePoint"/>
                        <mxPoint x="601" y="546" as="targetPoint"/>
                        <Array as="points"/>
                    </mxGeometry>
                </mxCell>
                <mxCell id="17" value="初步清除场地边缘路过、偶发信号" style="rounded=1;whiteSpace=wrap;html=1;fontSize=14;fillColor=none;fontColor=#000000;strokeColor=#000000;" parent="1" vertex="1">
                    <mxGeometry x="661" y="611" width="470" height="90" as="geometry"/>
                </mxCell>
                <mxCell id="63" style="edgeStyle=none;html=1;exitX=0.5;exitY=1;exitDx=0;exitDy=0;entryX=0.5;entryY=0;entryDx=0;entryDy=0;fontSize=12;fontColor=#000000;strokeColor=#030303;" parent="1" source="18" target="25" edge="1">
                    <mxGeometry relative="1" as="geometry"/>
                </mxCell>
                <mxCell id="18" value="清除全时段范围内&lt;br&gt;一直出现在同一个地方的mac" style="whiteSpace=wrap;html=1;fillColor=none;fontColor=#000000;strokeColor=#000000;" parent="1" vertex="1">
                    <mxGeometry x="461" y="736" width="180" height="90" as="geometry"/>
                </mxCell>
                <mxCell id="19" value="203 - 196" style="text;html=1;align=center;verticalAlign=middle;resizable=0;points=[];autosize=1;strokeColor=none;fillColor=none;fontColor=#000000;" parent="1" vertex="1">
                    <mxGeometry x="461" y="701" width="70" height="30" as="geometry"/>
                </mxCell>
                <mxCell id="21" value="清除具有联网功能的智能设备、家具等干扰数据" style="rounded=1;whiteSpace=wrap;html=1;fontSize=14;fillColor=none;fontColor=#000000;strokeColor=#000000;" parent="1" vertex="1">
                    <mxGeometry x="661" y="736" width="470" height="90" as="geometry"/>
                </mxCell>
                <mxCell id="22" value="196 - 191" style="text;html=1;align=center;verticalAlign=middle;resizable=0;points=[];autosize=1;strokeColor=none;fillColor=none;fontColor=#000000;" parent="1" vertex="1">
                    <mxGeometry x="461" y="826" width="70" height="30" as="geometry"/>
                </mxCell>
                <mxCell id="23" value="全时段清理" style="text;html=1;align=center;verticalAlign=middle;resizable=0;points=[];autosize=1;strokeColor=none;fillColor=none;fontSize=20;horizontal=1;fontColor=#000000;fontStyle=1" parent="1" vertex="1">
                    <mxGeometry x="738" y="565" width="118" height="36" as="geometry"/>
                </mxCell>
                <mxCell id="60" style="edgeStyle=none;html=1;exitX=1;exitY=0.5;exitDx=0;exitDy=0;entryX=0;entryY=0.5;entryDx=0;entryDy=0;fontSize=12;fontColor=#000000;strokeColor=#030303;" parent="1" source="25" target="52" edge="1">
                    <mxGeometry relative="1" as="geometry"/>
                </mxCell>
                <mxCell id="25" value="&lt;font style=&quot;font-size: 12px;&quot;&gt;将mac按照日期打上标签：&lt;br&gt;date-mac&lt;br style=&quot;font-size: 12px;&quot;&gt;（&lt;span style=&quot;font-family: &amp;quot;Segoe WPC&amp;quot;, &amp;quot;Segoe UI&amp;quot;, sans-serif; text-align: right; font-size: 12px;&quot;&gt;28,54,187,20,163,246/&lt;/span&gt;&lt;br style=&quot;font-family: &amp;quot;Segoe WPC&amp;quot;, &amp;quot;Segoe UI&amp;quot;, sans-serif; text-align: right; font-size: 12px;&quot;&gt;&lt;span style=&quot;font-family: &amp;quot;Segoe WPC&amp;quot;, &amp;quot;Segoe UI&amp;quot;, sans-serif; text-align: right; font-size: 12px;&quot;&gt;7.5-28,54,187,20,163,246）&lt;/span&gt;&lt;/font&gt;" style="whiteSpace=wrap;html=1;fontSize=12;fillColor=none;fontColor=#000000;strokeColor=#0d0d0d;" parent="1" vertex="1">
                    <mxGeometry x="461" y="962.5" width="180" height="80" as="geometry"/>
                </mxCell>
                <mxCell id="26" value="人群分类" style="text;html=1;align=center;verticalAlign=middle;resizable=0;points=[];autosize=1;strokeColor=none;fillColor=none;fontSize=30;horizontal=1;fontColor=#000000;" parent="1" vertex="1">
                    <mxGeometry x="196" y="2165" width="140" height="50" as="geometry"/>
                </mxCell>
                <mxCell id="30" style="edgeStyle=none;html=1;exitX=0.5;exitY=1;exitDx=0;exitDy=0;entryX=0.5;entryY=0;entryDx=0;entryDy=0;fontSize=12;fontColor=#000000;" parent="1" source="27" target="29" edge="1">
                    <mxGeometry relative="1" as="geometry"/>
                </mxCell>
                <mxCell id="33" value="是" style="edgeLabel;html=1;align=center;verticalAlign=middle;resizable=0;points=[];fontSize=12;fontColor=#000000;" parent="30" vertex="1" connectable="0">
                    <mxGeometry x="0.4304" y="1" relative="1" as="geometry">
                        <mxPoint x="-1" y="-27" as="offset"/>
                    </mxGeometry>
                </mxCell>
                <mxCell id="35" style="edgeStyle=none;html=1;exitX=1;exitY=0.5;exitDx=0;exitDy=0;entryX=0;entryY=0.5;entryDx=0;entryDy=0;fontSize=12;fontColor=#000000;" parent="1" source="27" target="34" edge="1">
                    <mxGeometry relative="1" as="geometry"/>
                </mxCell>
                <mxCell id="36" value="否" style="edgeLabel;html=1;align=center;verticalAlign=middle;resizable=0;points=[];fontSize=12;fontColor=#000000;" parent="35" vertex="1" connectable="0">
                    <mxGeometry x="-0.3931" y="-1" relative="1" as="geometry">
                        <mxPoint as="offset"/>
                    </mxGeometry>
                </mxCell>
                <mxCell id="27" value="待在此地&amp;gt;8天且每天&amp;gt;10h" style="rhombus;whiteSpace=wrap;html=1;fontSize=12;fillColor=none;fontColor=#000000;strokeColor=#0d0d0d;" parent="1" vertex="1">
                    <mxGeometry x="416" y="2105" width="160" height="80" as="geometry"/>
                </mxCell>
                <mxCell id="29" value="常驻人群数据" style="whiteSpace=wrap;html=1;fontSize=12;fillColor=none;fontColor=#000000;strokeColor=#0d0d0d;" parent="1" vertex="1">
                    <mxGeometry x="436" y="2265" width="120" height="60" as="geometry"/>
                </mxCell>
                <mxCell id="31" value="mac数量：123&amp;nbsp; &amp;nbsp;数据条数：162万" style="text;html=1;align=center;verticalAlign=middle;resizable=0;points=[];autosize=1;fillColor=none;fontSize=12;fontColor=#000000;" parent="1" vertex="1">
                    <mxGeometry x="396" y="2335" width="200" height="30" as="geometry"/>
                </mxCell>
                <mxCell id="38" style="edgeStyle=none;html=1;entryX=0.5;entryY=0;entryDx=0;entryDy=0;fontSize=12;fontColor=#000000;" parent="1" source="34" target="37" edge="1">
                    <mxGeometry relative="1" as="geometry"/>
                </mxCell>
                <mxCell id="39" value="否" style="edgeLabel;html=1;align=center;verticalAlign=middle;resizable=0;points=[];fontSize=12;fontColor=#000000;" parent="38" vertex="1" connectable="0">
                    <mxGeometry x="-0.5152" y="-1" relative="1" as="geometry">
                        <mxPoint as="offset"/>
                    </mxGeometry>
                </mxCell>
                <mxCell id="44" style="edgeStyle=none;html=1;exitX=1;exitY=0.5;exitDx=0;exitDy=0;entryX=0.5;entryY=0;entryDx=0;entryDy=0;fontSize=40;fontColor=#000000;" parent="1" source="34" target="43" edge="1">
                    <mxGeometry relative="1" as="geometry">
                        <Array as="points">
                            <mxPoint x="1006" y="2145"/>
                        </Array>
                    </mxGeometry>
                </mxCell>
                <mxCell id="46" value="是" style="edgeLabel;html=1;align=center;verticalAlign=middle;resizable=0;points=[];fontSize=12;fontColor=#000000;" parent="44" vertex="1" connectable="0">
                    <mxGeometry x="-0.7382" relative="1" as="geometry">
                        <mxPoint as="offset"/>
                    </mxGeometry>
                </mxCell>
                <mxCell id="34" value="待在此地&amp;lt;0.5h的天数&amp;gt;5" style="rhombus;whiteSpace=wrap;html=1;fontSize=12;fillColor=none;fontColor=#000000;strokeColor=#0d0d0d;" parent="1" vertex="1">
                    <mxGeometry x="676" y="2105" width="160" height="80" as="geometry"/>
                </mxCell>
                <mxCell id="37" value="游客人群数据" style="whiteSpace=wrap;html=1;fontSize=12;fillColor=none;fontColor=#000000;strokeColor=#0d0d0d;" parent="1" vertex="1">
                    <mxGeometry x="696" y="2265" width="120" height="60" as="geometry"/>
                </mxCell>
                <mxCell id="40" value="mac数量：4551&amp;nbsp; &amp;nbsp;数据条数：24万" style="text;html=1;align=center;verticalAlign=middle;resizable=0;points=[];autosize=1;fillColor=none;fontSize=12;fontColor=#000000;" parent="1" vertex="1">
                    <mxGeometry x="656" y="2335" width="200" height="30" as="geometry"/>
                </mxCell>
                <mxCell id="41" value="大仓村Wi-Fi数据清洗及处理" style="text;html=1;align=center;verticalAlign=middle;resizable=0;points=[];autosize=1;strokeColor=none;fillColor=none;fontSize=40;fontColor=#000000;" parent="1" vertex="1">
                    <mxGeometry x="536" y="186" width="520" height="60" as="geometry"/>
                </mxCell>
                <mxCell id="43" value="通勤人群数据" style="whiteSpace=wrap;html=1;fontSize=12;fillColor=none;fontColor=#000000;strokeColor=#0d0d0d;" parent="1" vertex="1">
                    <mxGeometry x="946" y="2265" width="120" height="60" as="geometry"/>
                </mxCell>
                <mxCell id="47" value="mac数量：4551&amp;nbsp; &amp;nbsp;数据条数：24万" style="text;html=1;align=center;verticalAlign=middle;resizable=0;points=[];autosize=1;strokeColor=none;fillColor=none;fontSize=12;fontColor=#000000;" parent="1" vertex="1">
                    <mxGeometry x="906" y="2335" width="200" height="30" as="geometry"/>
                </mxCell>
                <mxCell id="67" style="edgeStyle=none;html=1;exitX=1;exitY=0.5;exitDx=0;exitDy=0;entryX=0;entryY=0.5;entryDx=0;entryDy=0;fontSize=16;fontColor=#000000;strokeColor=#030303;" parent="1" source="52" target="66" edge="1">
                    <mxGeometry relative="1" as="geometry"/>
                </mxCell>
                <mxCell id="52" value="删除只出现过一次的date-mac" style="whiteSpace=wrap;html=1;fontSize=12;fillColor=none;fontColor=#000000;strokeColor=#0d0d0d;" parent="1" vertex="1">
                    <mxGeometry x="701" y="962.5" width="180" height="80" as="geometry"/>
                </mxCell>
                <mxCell id="53" value="&lt;b&gt;&lt;font style=&quot;font-size: 16px;&quot;&gt;通勤人群：&lt;/font&gt;&lt;/b&gt;&lt;br&gt;&lt;span style=&quot;white-space: pre;&quot;&gt;&#9;&lt;/span&gt;1.出现时间短&lt;br&gt;&lt;span style=&quot;white-space: pre;&quot;&gt;&#9;&lt;/span&gt;2.出现频率具有规律性&lt;br&gt;&lt;span style=&quot;white-space: pre;&quot;&gt;&#9;&lt;/span&gt;3.出现天数多" style="whiteSpace=wrap;html=1;fontSize=12;align=left;fillColor=none;fontColor=#000000;strokeColor=#0d0d0d;" parent="1" vertex="1">
                    <mxGeometry x="1291" y="466" width="326" height="85" as="geometry"/>
                </mxCell>
                <mxCell id="54" value="&lt;b&gt;&lt;font style=&quot;font-size: 16px;&quot;&gt;固定智能家具/设备：&lt;/font&gt;&lt;/b&gt;&lt;br&gt;&lt;span style=&quot;white-space: pre;&quot;&gt;&#9;&lt;/span&gt;1.一直出现在一个地点或2-3个地点（信号问题导致的地点切换）&lt;br&gt;&lt;span style=&quot;white-space: pre;&quot;&gt;&#9;&lt;/span&gt;2.数据量多" style="whiteSpace=wrap;html=1;fontSize=12;align=left;fillColor=none;fontColor=#000000;strokeColor=#0d0d0d;" parent="1" vertex="1">
                    <mxGeometry x="1291" y="576" width="326" height="75" as="geometry"/>
                </mxCell>
                <mxCell id="55" value="&lt;b&gt;&lt;font style=&quot;font-size: 16px;&quot;&gt;偶发信号：&lt;/font&gt;&lt;/b&gt;&lt;br&gt;&lt;span style=&quot;white-space: pre;&quot;&gt;&#9;&lt;/span&gt;1.出现时间短&lt;br&gt;&lt;span style=&quot;white-space: pre;&quot;&gt;&#9;&lt;/span&gt;2.数据量少&lt;br&gt;&lt;span style=&quot;white-space: pre;&quot;&gt;&#9;&lt;/span&gt;3.可能一直出现在1-3个地点之间" style="whiteSpace=wrap;html=1;fontSize=12;align=left;fillColor=none;fontColor=#000000;strokeColor=#0d0d0d;" parent="1" vertex="1">
                    <mxGeometry x="1291" y="676" width="327" height="75" as="geometry"/>
                </mxCell>
                <mxCell id="62" value="140" style="text;html=1;align=center;verticalAlign=middle;resizable=0;points=[];autosize=1;strokeColor=none;fillColor=none;fontColor=#000000;" parent="1" vertex="1">
                    <mxGeometry x="448" y="1078" width="38" height="26" as="geometry"/>
                </mxCell>
                <mxCell id="64" value="偶发数据清理" style="text;html=1;align=center;verticalAlign=middle;resizable=0;points=[];autosize=1;strokeColor=none;fillColor=none;fontSize=20;horizontal=1;fontColor=#000000;fontStyle=1" parent="1" vertex="1">
                    <mxGeometry x="727" y="884" width="138" height="36" as="geometry"/>
                </mxCell>
                <mxCell id="65" value="&lt;font style=&quot;font-size: 16px;&quot;&gt;&lt;b&gt;&amp;nbsp;路过人群：&lt;/b&gt;&lt;/font&gt;&lt;br&gt;&lt;span style=&quot;white-space: pre;&quot;&gt;&#9;&lt;/span&gt;出现时间短" style="whiteSpace=wrap;html=1;fontSize=12;align=left;fillColor=none;fontColor=#000000;strokeColor=#0d0d0d;" parent="1" vertex="1">
                    <mxGeometry x="1291" y="361" width="326" height="85" as="geometry"/>
                </mxCell>
                <mxCell id="66" value="删除一天中数据量&amp;lt;10，&lt;br&gt;出现位置&amp;lt;3，&lt;br&gt;持续时间&amp;lt;0.5h,&lt;br&gt;的date-mac" style="whiteSpace=wrap;html=1;fontSize=12;fillColor=none;fontColor=#000000;strokeColor=#0d0d0d;" parent="1" vertex="1">
                    <mxGeometry x="921" y="962.5" width="180" height="80" as="geometry"/>
                </mxCell>
                <mxCell id="69" value="跳动信号还原" style="text;html=1;align=center;verticalAlign=middle;resizable=0;points=[];autosize=1;strokeColor=none;fillColor=none;fontSize=30;horizontal=1;fontColor=#000000;" parent="1" vertex="1">
                    <mxGeometry x="49" y="1349" width="200" height="50" as="geometry"/>
                </mxCell>
                <mxCell id="70" value="无效数据清理" style="text;html=1;align=center;verticalAlign=middle;resizable=0;points=[];autosize=1;strokeColor=none;fillColor=none;fontSize=20;horizontal=1;fontColor=#000000;fontStyle=1" parent="1" vertex="1">
                    <mxGeometry x="722" y="333" width="138" height="36" as="geometry"/>
                </mxCell>
                <mxCell id="73" value="仅保留定位变化数据" style="whiteSpace=wrap;html=1;fontSize=12;fillColor=none;fontColor=#000000;strokeColor=#0d0d0d;" vertex="1" parent="1">
                    <mxGeometry x="451" y="1118" width="681" height="59" as="geometry"/>
                </mxCell>
                <mxCell id="75" value="最终得到80万条数据" style="text;html=1;align=center;verticalAlign=middle;resizable=0;points=[];autosize=1;strokeColor=none;fillColor=none;fontColor=#000000;" vertex="1" parent="1">
                    <mxGeometry x="443" y="1180" width="127" height="26" as="geometry"/>
                </mxCell>
                <mxCell id="97" style="edgeStyle=none;html=1;exitX=0.5;exitY=1;exitDx=0;exitDy=0;entryX=0.5;entryY=0;entryDx=0;entryDy=0;strokeColor=#030303;fontSize=14;fontColor=#000000;" edge="1" parent="1" source="82" target="83">
                    <mxGeometry relative="1" as="geometry"/>
                </mxCell>
                <mxCell id="82" value="计算轨迹数据特征" style="whiteSpace=wrap;html=1;fontSize=14;fillColor=none;fontColor=#000000;strokeColor=#0d0d0d;" vertex="1" parent="1">
                    <mxGeometry x="359.5" y="1319" width="221" height="59" as="geometry"/>
                </mxCell>
                <mxCell id="98" style="edgeStyle=none;html=1;exitX=0.5;exitY=1;exitDx=0;exitDy=0;entryX=0.5;entryY=0;entryDx=0;entryDy=0;strokeColor=#030303;fontSize=14;fontColor=#000000;" edge="1" parent="1" source="83" target="96">
                    <mxGeometry relative="1" as="geometry">
                        <mxPoint x="467" y="1480" as="targetPoint"/>
                    </mxGeometry>
                </mxCell>
                <mxCell id="83" value="获取待还原探针评估基准" style="whiteSpace=wrap;html=1;fontSize=14;fillColor=none;fontColor=#000000;strokeColor=#0d0d0d;" vertex="1" parent="1">
                    <mxGeometry x="359.5" y="1407" width="221" height="59" as="geometry"/>
                </mxCell>
                <mxCell id="85" value="&lt;font style=&quot;font-size: 12px;&quot;&gt;探针组列表&lt;br&gt;（强制还原）&lt;/font&gt;" style="rounded=1;whiteSpace=wrap;html=1;dashed=1;strokeColor=#666666;fontSize=20;fontColor=#333333;fillColor=#f5f5f5;" vertex="1" parent="1">
                    <mxGeometry x="349" y="1673" width="120" height="60" as="geometry"/>
                </mxCell>
                <mxCell id="86" value="&lt;font style=&quot;font-size: 12px;&quot;&gt;探针组列表&lt;br&gt;（普通还原）&lt;br&gt;&lt;/font&gt;" style="rounded=1;whiteSpace=wrap;html=1;dashed=1;strokeColor=#666666;fontSize=20;fontColor=#333333;fillColor=#f5f5f5;" vertex="1" parent="1">
                    <mxGeometry x="475" y="1673" width="120" height="60" as="geometry"/>
                </mxCell>
                <mxCell id="88" value="轨迹还原" style="text;html=1;align=center;verticalAlign=middle;resizable=0;points=[];autosize=1;strokeColor=none;fillColor=none;fontSize=16;fontColor=#000000;fontStyle=1" vertex="1" parent="1">
                    <mxGeometry x="305" y="1611" width="82" height="31" as="geometry"/>
                </mxCell>
                <mxCell id="100" style="edgeStyle=none;html=1;exitX=0.5;exitY=1;exitDx=0;exitDy=0;entryX=0.5;entryY=0;entryDx=0;entryDy=0;strokeColor=#030303;fontSize=14;fontColor=#000000;" edge="1" parent="1" source="90" target="92">
                    <mxGeometry relative="1" as="geometry"/>
                </mxCell>
                <mxCell id="90" value="" style="whiteSpace=wrap;html=1;fontSize=12;fillColor=none;fontColor=#000000;strokeColor=#0d0d0d;" vertex="1" parent="1">
                    <mxGeometry x="324" y="1645" width="294" height="101" as="geometry"/>
                </mxCell>
                <mxCell id="91" value="获取探针组列表" style="text;html=1;align=center;verticalAlign=middle;resizable=0;points=[];autosize=1;strokeColor=none;fillColor=none;fontSize=14;fontColor=#000000;" vertex="1" parent="1">
                    <mxGeometry x="415" y="1645" width="116" height="29" as="geometry"/>
                </mxCell>
                <mxCell id="101" style="edgeStyle=none;html=1;exitX=0.5;exitY=1;exitDx=0;exitDy=0;strokeColor=#030303;fontSize=14;fontColor=#000000;" edge="1" parent="1" source="92" target="93">
                    <mxGeometry relative="1" as="geometry"/>
                </mxCell>
                <mxCell id="92" value="生成探针组" style="whiteSpace=wrap;html=1;fontSize=14;fillColor=none;fontColor=#000000;strokeColor=#0d0d0d;" vertex="1" parent="1">
                    <mxGeometry x="388" y="1772" width="169" height="59" as="geometry"/>
                </mxCell>
                <mxCell id="102" style="edgeStyle=none;html=1;exitX=0.5;exitY=1;exitDx=0;exitDy=0;entryX=0.5;entryY=0;entryDx=0;entryDy=0;strokeColor=#030303;fontSize=14;fontColor=#000000;" edge="1" parent="1" source="93" target="94">
                    <mxGeometry relative="1" as="geometry"/>
                </mxCell>
                <mxCell id="93" value="生成对应虚拟探针" style="whiteSpace=wrap;html=1;fontSize=14;fillColor=none;fontColor=#000000;strokeColor=#0d0d0d;" vertex="1" parent="1">
                    <mxGeometry x="388" y="1850" width="169" height="59" as="geometry"/>
                </mxCell>
                <mxCell id="99" style="edgeStyle=none;html=1;exitX=0.5;exitY=1;exitDx=0;exitDy=0;strokeColor=#030303;fontSize=14;fontColor=#000000;" edge="1" parent="1" source="96" target="90">
                    <mxGeometry relative="1" as="geometry"/>
                </mxCell>
                <mxCell id="104" value="是" style="edgeLabel;html=1;align=center;verticalAlign=middle;resizable=0;points=[];fontSize=14;fontColor=#000000;labelBackgroundColor=#ffffff;" vertex="1" connectable="0" parent="99">
                    <mxGeometry x="-0.2786" relative="1" as="geometry">
                        <mxPoint y="-10" as="offset"/>
                    </mxGeometry>
                </mxCell>
                <mxCell id="106" style="edgeStyle=none;html=1;exitX=1;exitY=0.5;exitDx=0;exitDy=0;entryX=0;entryY=0.5;entryDx=0;entryDy=0;strokeColor=#030303;fontSize=14;fontColor=#000000;" edge="1" parent="1" source="96" target="105">
                    <mxGeometry relative="1" as="geometry"/>
                </mxCell>
                <mxCell id="107" value="否" style="edgeLabel;html=1;align=center;verticalAlign=middle;resizable=0;points=[];fontSize=14;fontColor=#000000;labelBackgroundColor=#ffffff;" vertex="1" connectable="0" parent="106">
                    <mxGeometry x="0.3504" y="-1" relative="1" as="geometry">
                        <mxPoint x="-46" y="-1" as="offset"/>
                    </mxGeometry>
                </mxCell>
                <mxCell id="96" value="是否存在待还原探针？" style="rhombus;whiteSpace=wrap;html=1;fontSize=12;fillColor=none;fontColor=#000000;strokeColor=#0d0d0d;" vertex="1" parent="1">
                    <mxGeometry x="390" y="1498" width="160" height="80" as="geometry"/>
                </mxCell>
                <mxCell id="103" style="edgeStyle=none;html=1;exitX=0.5;exitY=1;exitDx=0;exitDy=0;entryX=0;entryY=0.5;entryDx=0;entryDy=0;strokeColor=#030303;fontSize=14;fontColor=#000000;" edge="1" parent="1" source="94" target="82">
                    <mxGeometry relative="1" as="geometry">
                        <Array as="points">
                            <mxPoint x="473" y="2041"/>
                            <mxPoint x="255" y="2041"/>
                            <mxPoint x="255" y="1349"/>
                        </Array>
                    </mxGeometry>
                </mxCell>
                <mxCell id="110" style="edgeStyle=none;html=1;exitX=0.5;exitY=1;exitDx=0;exitDy=0;entryX=0.5;entryY=0;entryDx=0;entryDy=0;strokeColor=#030303;fontSize=14;fontColor=#000000;" edge="1" parent="1" source="105" target="108">
                    <mxGeometry relative="1" as="geometry"/>
                </mxCell>
                <mxCell id="105" value="还原漂移轨迹" style="whiteSpace=wrap;html=1;fontSize=14;fillColor=none;fontColor=#000000;strokeColor=#0d0d0d;" vertex="1" parent="1">
                    <mxGeometry x="701" y="1508.5" width="142" height="59" as="geometry"/>
                </mxCell>
                <mxCell id="111" style="edgeStyle=none;html=1;exitX=0.5;exitY=1;exitDx=0;exitDy=0;entryX=0.5;entryY=0;entryDx=0;entryDy=0;strokeColor=#030303;fontSize=14;fontColor=#000000;" edge="1" parent="1" source="108" target="109">
                    <mxGeometry relative="1" as="geometry"/>
                </mxCell>
                <mxCell id="108" value="二次清洗" style="whiteSpace=wrap;html=1;fontSize=14;fillColor=none;fontColor=#000000;strokeColor=#0d0d0d;" vertex="1" parent="1">
                    <mxGeometry x="701" y="1608" width="142" height="59" as="geometry"/>
                </mxCell>
                <mxCell id="109" value="轨迹还原完毕" style="whiteSpace=wrap;html=1;fontSize=14;fillColor=none;fontColor=#000000;strokeColor=#0d0d0d;" vertex="1" parent="1">
                    <mxGeometry x="701" y="1719" width="142" height="59" as="geometry"/>
                </mxCell>
            </root>
        </mxGraphModel>
    </diagram>
</mxfile>